<svg id="Layer_1" data-name="Layer 1" xmlns="http://www.w3.org/2000/svg" viewBox="0 0 305.53 93.42"><defs><style>.cls-1{fill:#712632;}</style></defs><path class="cls-1" d="M272.11,136.14h-.71v-4.53a5,5,0,0,1,.37-1.94h0c.11-.21.54-1.41,1.39-1.41a.13.13,0,0,1,.14.13c0,.2-.14.35-.14.61,0,.43.51.74.94.74.95,0,1.07-.84,1.07-1.33s-.36-1-1.27-1c-1.15,0-2.15,1.42-2.48,2.4v-2.13h-2.87V128h.71v8.18h-.71v.25h3.58Zm-5.84-.33a.65.65,0,0,1-.59.48.45.45,0,0,1-.46-.46v-3.76c0-2.89-1.62-4.6-4.05-4.6-3,0-4.11,2.55-4.11,4.57,0,2.76,1.53,4.56,3.94,4.56a2.15,2.15,0,0,0,2.05-1.26c.15.54.53,1.25,2.16,1.25h.08a1.26,1.26,0,0,0,1.26-.78ZM263,134.27a2.15,2.15,0,0,1-1.91,2c-1.47,0-1.79-1.09-1.79-3.48v-2.5c0-1.41.25-2.6,1.81-2.6,1.81,0,1.89,1.71,1.89,3.4Zm-8.3,1.54a.67.67,0,0,1-.6.48.45.45,0,0,1-.46-.46V128h1.71l0-.29h-1.73v-3.5a6,6,0,0,1-2.18.94v2.56h-1V128h1v6.62c0,1.38.67,2,2.09,2h.19a1.22,1.22,0,0,0,1.23-.78Zm-12.29.58c0-.63,0-.85.11-.85s.15.09.3.24a3,3,0,0,0,2.27.77c2.44,0,3.36-1,3.36-2.9a2.53,2.53,0,0,0-2.12-2.66c-2.06-.55-3.31-.71-3.31-1.65s1-1.57,2.17-1.57,2.16.41,2.34,1.49l.33,0,0-1.56h-.25v.11c0,.25,0,.36-.1.36s-.11-.05-.21-.11a3.24,3.24,0,0,0-2-.59c-2.3,0-3.18,1.2-3.18,2.61,0,2.08,1,2.5,2.95,3,1.79.49,2.4.82,2.4,1.71s-1,1.44-2.46,1.44a2.68,2.68,0,0,1-2.65-1.57l-.28,0v1.71Zm-7.83-4.86V130c0-.63,0-2.25,1.33-2.25,1.51,0,1.51,1.57,1.51,3.23v.18c0,.38,0,.4-.34.4Zm4.58,2.82a2.57,2.57,0,0,1-2.66,1.91c-1.16,0-1.92-1-1.92-3v-1.51h4.58c.38,0,.45-.08.45-.3v-.36c0-2.33-1.28-3.66-3.7-3.66a3.56,3.56,0,0,0-3.35,1.63,4.79,4.79,0,0,0-.42,2.18v1.36c0,2.75,1.36,3.9,4,3.9a3.05,3.05,0,0,0,3.3-2.07Zm-14.36,1.46a.67.67,0,0,1-.6.48.45.45,0,0,1-.46-.46v-5c0-2.22-.83-3.35-3-3.35a2.18,2.18,0,0,0-2.22,1.94,2.71,2.71,0,0,0-3-2,2.24,2.24,0,0,0-2,1.4v-1.15H210.7V128h.7v8.2h-.7v.23h3.56v-.23h-.69v-6a2.25,2.25,0,0,1,2-2.45c1,0,1,1.33,1,2.37v6.06h-.7v.23h3.58v-.23h-.72v-5.83c0-1.13.59-2.56,1.92-2.56.93,0,.95,1.46.95,2.43v4.43c0,1.38.67,2,2.09,2h.19a1.22,1.22,0,0,0,1.23-.78Zm-21.49-4.28V130c0-.63,0-2.25,1.33-2.25,1.51,0,1.51,1.57,1.51,3.23v.18c0,.38,0,.4-.34.4Zm4.58,2.82a2.58,2.58,0,0,1-2.66,1.91c-1.16,0-1.92-1-1.92-3v-1.51h4.58c.38,0,.44-.08.44-.3v-.36c0-2.33-1.28-3.66-3.69-3.66a3.56,3.56,0,0,0-3.35,1.63,4.82,4.82,0,0,0-.43,2.18v1.36c0,2.75,1.37,3.9,4,3.9a3,3,0,0,0,3.3-2.07Zm-12.2-.67c0,1.23-.27,2.59-1.71,2.59s-1.89-1.47-1.89-2.9v-3.58a2.1,2.1,0,0,1,2.2-2c1.4,0,1.4,1.72,1.4,3.93Zm-3.6-9.9h-2.87V124h.7v8.18c0,2.23,1.12,4.35,4.27,4.35,3,0,3.88-2.46,3.88-4.58a5.42,5.42,0,0,0-.63-2.87,3.61,3.61,0,0,0-3.13-1.63,2.28,2.28,0,0,0-2.22,1.28Zm-10,14.45a.72.72,0,0,1-.73.47c-.28,0-.55-.11-.55-.83v-7.46h.67l0-.25h-4.6c-1.29,0-1.82-1.11-1.82-2.43,0-2.2,1.1-2.8,2.07-2.8a5,5,0,0,1,1.79.29l.13-.18a5.61,5.61,0,0,0-1.92-.36c-1.49,0-4,.48-4,3a2.63,2.63,0,0,0,2.11,2.52c.06,0,.06.07,0,.07-1.67.21-3.22,1.23-3.22,3.12,0,2.1,1.89,3.25,4,3.25a2.49,2.49,0,0,0,2.6-1.49v1.94a1.91,1.91,0,0,0,2.07,1.95H181c.94,0,1.2-.36,1.4-.77ZM178.65,134a2.24,2.24,0,0,1-2.19,2.25c-1.28,0-1.8-1.55-1.8-3s.54-2.81,2.36-2.81h1.63Zm-19.41-2.48V130c0-.63,0-2.25,1.33-2.25,1.51,0,1.51,1.57,1.51,3.23v.18c0,.38,0,.4-.35.4Zm4.58,2.82a2.58,2.58,0,0,1-2.66,1.91c-1.17,0-1.92-1-1.92-3v-1.51h4.58c.38,0,.44-.08.44-.3v-.36c0-2.33-1.28-3.66-3.69-3.66a3.55,3.55,0,0,0-3.35,1.63,4.82,4.82,0,0,0-.43,2.18v1.36c0,2.75,1.36,3.9,4,3.9a3.05,3.05,0,0,0,3.3-2.07Zm-15.77-2.67c0-2.21,0-3.93,1.39-3.93a2.1,2.1,0,0,1,2.2,2v3.58c0,1.43-.42,2.9-1.89,2.9s-1.7-1.36-1.7-2.59Zm5.76-7.9h-2.87V124h.7v4.73a2.28,2.28,0,0,0-2.21-1.28,3.61,3.61,0,0,0-3.14,1.63,5.42,5.42,0,0,0-.63,2.87c0,2.12.89,4.58,3.88,4.58,3.15,0,4.27-2.12,4.27-4.35Zm-12.75.93-.21-.1L139.5,129l.25.05.33-1.08h.37v5.89c0,.92-.47,2.45-2,2.45-1.09,0-1.15-1.38-1.15-2.23v-6.34h-2.88V128h.71v5.13c0,1.76.76,3.46,3.32,3.46a2.21,2.21,0,0,0,2-1.43c.09.78.69,1.43,2.16,1.43h.08a1.26,1.26,0,0,0,1.26-.77h-.28a.67.67,0,0,1-.59.48.45.45,0,0,1-.46-.46v-8.08h-2.48Zm-8.21,11.1a.66.66,0,0,1-.59.48.45.45,0,0,1-.46-.46v-3.76c0-2.89-1.63-4.6-4.06-4.6-3,0-4.1,2.55-4.1,4.57,0,2.76,1.52,4.56,3.94,4.56a2.15,2.15,0,0,0,2-1.26c.15.54.53,1.25,2.15,1.25h.08a1.29,1.29,0,0,0,1.27-.78Zm-3.24-1.54a2.15,2.15,0,0,1-1.9,2c-1.48,0-1.79-1.09-1.79-3.48v-2.5c0-1.41.24-2.6,1.8-2.6,1.81,0,1.89,1.71,1.89,3.4Zm-14.52,2.12c0-.63,0-.85.11-.85s.15.09.3.24a3,3,0,0,0,2.26.77c2.45,0,3.37-1,3.37-2.9A2.54,2.54,0,0,0,119,131c-2.07-.55-3.32-.71-3.32-1.65s1-1.57,2.17-1.57,2.17.41,2.35,1.49l.33,0,0-1.56h-.24v.11c0,.25,0,.36-.1.36a.62.62,0,0,1-.22-.11,3.21,3.21,0,0,0-2-.59c-2.3,0-3.19,1.2-3.19,2.61,0,2.08,1,2.5,3,3s2.4.82,2.4,1.71-1,1.44-2.47,1.44a2.67,2.67,0,0,1-2.64-1.57l-.28,0v1.71Z" transform="translate(-42.23 -45.58)"/><path class="cls-1" d="M340.64,106.13a8.83,8.83,0,0,0,7.12-3.08l-2.56-2.37a5.49,5.49,0,0,1-4.34,2,5.52,5.52,0,0,1,0-11,5.55,5.55,0,0,1,4.34,2l2.56-2.36a8.89,8.89,0,0,0-7.09-3.06c-5.37,0-9.36,3.72-9.36,8.92s4,8.92,9.33,8.92m-31-.3h4V88.59h-4ZM289.09,88.59l-5.32,12.32-5.24-12.32h-4.32l7.44,17.24h4l7.46-17.24ZM253.7,105.83h4V88.59h-4Zm-27.28-3.25,9.44-11.4V88.59H221.35v3.25h9.26l-9.46,11.41v2.58h15.08v-3.25Zm-34.67-2.83,4.14-9.26L200,99.75Zm11,6.08h1.93L196.8,88.59H195l-7.88,17.24H189l2.07-4.6h9.6ZM168.23,88.59l-7.41,12.78-7.49-12.78h-1.5v17.24h1.75V92.11l6.77,11.53h.86L168,92v13.79h1.75V88.59Zm-38,17.24H132V88.59H130.2Zm-25.28,0h1.82V90.17h6.06V88.59H98.86v1.58h6.06ZM73,99.75l4.14-9.26,4.14,9.26Zm11,6.08h1.92L78,88.59H76.23l-7.89,17.24h1.9l2.07-4.6h9.61ZM54.05,90.17V88.59H42.23v17.24h1.82V98.52H53V96.94H44.05V90.17Z" transform="translate(-42.23 -45.58)"/><path class="cls-1" d="M171.16,46.94l3.57,3.58L176,49.27,172.4,45.7Zm11.66,8c.6,6,3,8.9,8.24,10l1.88.38-1.1-1.57c-.25-.36-.48-.72-.67-1l-.07-.12c-.22-.36-.41-.72-.59-1.07-.07-.14-.13-.28-.21-.45s-.2-.43-.28-.63l-.08-.22c-.06-.13-.11-.26-.16-.39s0-.11,0-.16a10,10,0,0,1-.58-3.55v-.79h-.63a15.87,15.87,0,0,0-4.89-1.2l-.92-.08Zm8.19.32c-.37,2.77.71,5.62,3.4,8.94l.59.74.6-.73c2.69-3.27,3.76-6.11,3.38-8.91v-.21a14.37,14.37,0,0,0-3.42-6.62l-.56-.62-.57.61A13.8,13.8,0,0,0,191,55l0,.13Zm7.24,8.35-1.16,1.7,1.85-.37c5.17-1,7.55-3.93,8.21-10l.1-.93-.92.08a15.38,15.38,0,0,0-5,1.26l-.46.21V56a12.53,12.53,0,0,1-2.58,7.56M180.93,53a.87.87,0,0,1,.94-.82,21.38,21.38,0,0,1,6.86,1.29l.71.26.27-.71a20.43,20.43,0,0,1,4.64-7.15.84.84,0,0,1,.65-.29.92.92,0,0,1,.67.31A21.39,21.39,0,0,1,200.24,53l.28.7.7-.26a20.61,20.61,0,0,1,6.9-1.28h.11a.85.85,0,0,1,.6.28.89.89,0,0,1,.23.64c-.51,9.69-4.44,13.63-14,14h-.13c-9.68-.51-13.61-4.45-14-14.12M171,65.47h5.05V63.71H171Zm47.91,0h-5.06V63.71H219ZM217.59,45.7,214,49.27l1.25,1.25,3.57-3.58Z" transform="translate(-42.23 -45.58)"/></svg>